<svg width="20" height="28" viewBox="0 0 20 28" fill="none" xmlns="http://www.w3.org/2000/svg">
<path d="M9.91667 12.9424C8.97736 12.9424 8.07652 12.5835 7.41233 11.9448C6.74814 11.3061 6.375 10.4398 6.375 9.53649C6.375 8.63319 6.74814 7.76689 7.41233 7.12816C8.07652 6.48944 8.97736 6.1306 9.91667 6.1306C10.856 6.1306 11.7568 6.48944 12.421 7.12816C13.0852 7.76689 13.4583 8.63319 13.4583 9.53649C13.4583 9.98376 13.3667 10.4266 13.1887 10.8399C13.0108 11.2531 12.7499 11.6286 12.421 11.9448C12.0921 12.2611 11.7017 12.512 11.272 12.6831C10.8423 12.8543 10.3818 12.9424 9.91667 12.9424ZM9.91667 0C7.2866 0 4.76426 1.00473 2.90452 2.79317C1.04479 4.58161 0 7.00726 0 9.53649C0 16.6889 9.91667 27.2471 9.91667 27.2471C9.91667 27.2471 19.8333 16.6889 19.8333 9.53649C19.8333 7.00726 18.7885 4.58161 16.9288 2.79317C15.0691 1.00473 12.5467 0 9.91667 0Z" fill="white"/>
</svg>
