<svg width="107" height="107" viewBox="0 0 107 107" fill="none" xmlns="http://www.w3.org/2000/svg">
<path d="M98.0835 8.91732H93.6252V13.3757H98.0835V8.91732ZM93.6252 13.3757H89.1668V17.834H93.6252V13.3757ZM89.1668 17.834H71.3335V22.2923H89.1668V17.834ZM71.3335 13.3757H62.4168V17.834H71.3335V13.3757ZM62.4168 8.91732H57.9585V13.3757H62.4168V8.91732ZM57.9585 4.45898H49.0418V8.91732H57.9585V4.45898ZM49.0418 8.91732H44.5835V13.3757H49.0418V8.91732ZM44.5835 13.3757H35.6668V17.834H44.5835V13.3757ZM35.6668 17.834H17.8335V22.2923H35.6668V17.834ZM17.8335 13.3757H13.3752V17.834H17.8335V13.3757ZM13.3752 8.91732H8.91683V13.3757H13.3752V8.91732ZM13.3752 62.4173H8.91683V71.334H13.3752V62.4173ZM17.8335 71.334H13.3752V80.2506H17.8335V71.334ZM22.2918 80.2506H17.8335V84.709H22.2918V80.2506ZM31.2085 84.709H22.2918V89.1673H31.2085V84.709ZM40.1252 89.1673H31.2085V93.6256H40.1252V89.1673ZM49.0418 93.6256H40.1252V98.084H49.0418V93.6256ZM57.9585 98.084H49.0418V102.542H57.9585V98.084ZM66.8752 93.6256H57.9585V98.084H66.8752V93.6256ZM75.7918 89.1673H66.8752V93.6256H75.7918V89.1673ZM84.7085 84.709H75.7918V89.1673H84.7085V84.709ZM89.1668 80.2506H84.7085V84.709H89.1668V80.2506ZM93.6252 71.334H89.1668V80.2506H93.6252V71.334ZM98.0835 62.4173H93.6252V71.334H98.0835V62.4173ZM102.542 13.3757H98.0835V62.4173H102.542V13.3757ZM8.91683 13.3757H4.4585V62.4173H8.91683V13.3757Z" fill="white"/>
<path d="M89.1667 22.2917V26.75H71.3333V22.2917H62.4167V17.8333H57.9583V13.375H49.0417V17.8333H44.5833V22.2917H35.6667V26.75H17.8333V22.2917H13.375V62.4167H17.8333V71.3333H22.2917V80.25H31.2083V84.7083H40.125V89.1667H49.0417V93.625H57.9583V89.1667H66.875V84.7083H75.7917V80.25H84.7083V71.3333H89.1667V62.4167H93.625V22.2917H89.1667ZM44.5833 75.7917V66.875H49.0417V53.5H44.5833V40.125H49.0417V35.6667H57.9583V40.125H62.4167V53.5H57.9583V66.875H62.4167V75.7917H44.5833Z" fill="white"/>
</svg>
