<svg width="33" height="33" viewBox="0 0 33 33" fill="none" xmlns="http://www.w3.org/2000/svg">
<path d="M16.5002 23.5017C16.2391 23.5017 15.9943 23.4612 15.7658 23.3803C15.5373 23.2993 15.3252 23.1603 15.1293 22.9632L8.07933 15.9132C7.68766 15.5215 7.49966 15.0645 7.51533 14.5423C7.531 14.0201 7.719 13.5632 8.07933 13.1715C8.471 12.7798 8.93643 12.5762 9.47562 12.5605C10.0148 12.5448 10.4796 12.7322 10.87 13.1225L14.5418 16.7944V2.79232C14.5418 2.23746 14.7298 1.77269 15.1058 1.39799C15.4818 1.0233 15.9466 0.835297 16.5002 0.833991C17.0537 0.832686 17.5191 1.02069 17.8965 1.39799C18.2738 1.7753 18.4611 2.24007 18.4585 2.79232V16.7944L22.1304 13.1225C22.522 12.7309 22.9875 12.5429 23.5267 12.5585C24.0659 12.5742 24.5306 12.7785 24.921 13.1715C25.28 13.5632 25.468 14.0201 25.485 14.5423C25.502 15.0645 25.314 15.5215 24.921 15.9132L17.871 22.9632C17.6752 23.159 17.463 23.298 17.2345 23.3803C17.0061 23.4625 16.7613 23.503 16.5002 23.5017ZM4.75016 32.1673C3.67308 32.1673 2.75136 31.7841 1.985 31.0178C1.21863 30.2514 0.834802 29.329 0.833496 28.2507V24.334C0.833496 23.7791 1.0215 23.3144 1.3975 22.9397C1.7735 22.565 2.23827 22.377 2.79183 22.3757C3.34538 22.3744 3.81082 22.5624 4.18812 22.9397C4.56543 23.317 4.75277 23.7817 4.75016 24.334V28.2507H28.2502V24.334C28.2502 23.7791 28.4382 23.3144 28.8142 22.9397C29.1902 22.565 29.6549 22.377 30.2085 22.3757C30.7621 22.3744 31.2275 22.5624 31.6048 22.9397C31.9821 23.317 32.1694 23.7817 32.1668 24.334V28.2507C32.1668 29.3277 31.7836 30.2501 31.0173 31.0178C30.2509 31.7854 29.3286 32.1686 28.2502 32.1673H4.75016Z" fill="currentColor"/>
</svg>
