<svg width="67" height="67" viewBox="0 0 67 67" fill="none" xmlns="http://www.w3.org/2000/svg">
<path fill-rule="evenodd" clip-rule="evenodd" d="M2.79199 33.5007C8.45349 21.9097 20.078 13.959 33.5003 13.959C46.9227 13.959 58.5472 21.9097 64.2087 33.5007C58.5472 45.0917 46.9227 53.0423 33.5003 53.0423C20.078 53.0423 8.45349 45.0917 2.79199 33.5007ZM33.5003 43.2715C34.7834 43.2715 36.054 43.0188 37.2395 42.5277C38.4249 42.0367 39.502 41.317 40.4093 40.4097C41.3167 39.5024 42.0364 38.4252 42.5274 37.2398C43.0184 36.0543 43.2712 34.7838 43.2712 33.5007C43.2712 32.2175 43.0184 30.947 42.5274 29.7615C42.0364 28.5761 41.3167 27.4989 40.4093 26.5916C39.502 25.6843 38.4249 24.9646 37.2395 24.4736C36.054 23.9825 34.7834 23.7298 33.5003 23.7298C30.9089 23.7298 28.4237 24.7592 26.5913 26.5916C24.7589 28.424 23.7295 30.9093 23.7295 33.5007C23.7295 36.092 24.7589 38.5773 26.5913 40.4097C28.4237 42.2421 30.9089 43.2715 33.5003 43.2715Z" fill="#1DBBB7"/>
</svg>
