<svg width="106" height="106" viewBox="0 0 106 106" fill="none" xmlns="http://www.w3.org/2000/svg">
<path d="M36.4375 69.5625H29.8125V62.9375C29.8151 60.3027 30.863 57.7766 32.726 55.9135C34.5891 54.0505 37.1152 53.0026 39.75 53H59.625V59.625H39.75C38.8715 59.625 38.0289 59.974 37.4077 60.5952C36.7865 61.2164 36.4375 62.059 36.4375 62.9375V69.5625ZM49.6875 49.6875C47.0669 49.6875 44.5051 48.9104 42.3262 47.4545C40.1472 45.9985 38.449 43.9292 37.4461 41.5081C36.4432 39.0869 36.1808 36.4228 36.6921 33.8526C37.2033 31.2823 38.4653 28.9214 40.3183 27.0683C42.1714 25.2153 44.5323 23.9534 47.1026 23.4421C49.6728 22.9308 52.3369 23.1932 54.7581 24.1961C57.1792 25.199 59.2485 26.8973 60.7045 29.0762C62.1604 31.2552 62.9375 33.8169 62.9375 36.4375C62.9331 39.9503 61.5357 43.3179 59.0518 45.8018C56.5679 48.2857 53.2003 49.6831 49.6875 49.6875ZM49.6875 29.8125C48.3772 29.8125 47.0963 30.2011 46.0068 30.929C44.9174 31.657 44.0682 32.6917 43.5668 33.9022C43.0654 35.1128 42.9342 36.4449 43.1898 37.73C43.4454 39.0151 44.0764 40.1956 45.0029 41.1221C45.9294 42.0486 47.1099 42.6796 48.395 42.9352C49.6802 43.1908 51.0122 43.0596 52.2228 42.5582C53.4333 42.0568 54.468 41.2076 55.196 40.1182C55.924 39.0287 56.3125 37.7478 56.3125 36.4375C56.3125 34.6804 55.6145 32.9954 54.3721 31.7529C53.1297 30.5105 51.4446 29.8125 49.6875 29.8125ZM79.5 72.875C76.8794 72.875 74.3176 72.0979 72.1387 70.642C69.9597 69.1861 68.2615 67.1167 67.2586 64.6956C66.2557 62.2744 65.9933 59.6103 66.5046 57.0401C67.0158 54.4698 68.2778 52.1089 70.1308 50.2558C71.9839 48.4028 74.3448 47.1409 76.9151 46.6296C79.4853 46.1183 82.1494 46.3807 84.5706 47.3836C86.9917 48.3865 89.061 50.0848 90.517 52.2637C91.9729 54.4427 92.75 57.0044 92.75 59.625C92.7456 63.1378 91.3482 66.5054 88.8643 68.9893C86.3804 71.4732 83.0128 72.8706 79.5 72.875ZM79.5 53C78.1897 53 76.9088 53.3886 75.8193 54.1165C74.7299 54.8445 73.8807 55.8792 73.3793 57.0897C72.8779 58.3003 72.7467 59.6324 73.0023 60.9175C73.2579 62.2026 73.8889 63.3831 74.8154 64.3096C75.7419 65.2361 76.9224 65.8671 78.2075 66.1227C79.4926 66.3783 80.8247 66.2471 82.0353 65.7457C83.2458 65.2443 84.2805 64.3951 85.0085 63.3057C85.7365 62.2162 86.125 60.9353 86.125 59.625C86.125 57.8679 85.427 56.1829 84.1846 54.9404C82.9422 53.698 81.2571 53 79.5 53ZM99.375 92.75H92.75V86.125C92.75 85.2465 92.401 84.4039 91.7798 83.7827C91.1586 83.1615 90.316 82.8125 89.4375 82.8125H69.5625C68.684 82.8125 67.8414 83.1615 67.2202 83.7827C66.599 84.4039 66.25 85.2465 66.25 86.125V92.75H59.625V86.125C59.6276 83.4902 60.6755 80.9641 62.5385 79.101C64.4016 77.238 66.9277 76.1901 69.5625 76.1875H89.4375C92.0723 76.1901 94.5984 77.238 96.4615 79.101C98.3245 80.9641 99.3724 83.4902 99.375 86.125V92.75Z" fill="white"/>
<path d="M46.375 91.8656L29.0374 82.6237C24.2657 80.0839 20.2753 76.2931 17.4941 71.658C14.7129 67.0228 13.2457 61.718 13.25 56.3125V13.25H79.5V33.125H86.125V13.25C86.125 11.4929 85.427 9.80785 84.1846 8.56542C82.9422 7.32299 81.2571 6.625 79.5 6.625H13.25C11.493 6.625 9.80787 7.32299 8.56544 8.56542C7.32301 9.80785 6.62502 11.4929 6.62502 13.25V56.3125C6.61728 62.9188 8.40902 69.4026 11.8079 75.0675C15.2067 80.7325 20.0843 85.3647 25.917 88.4669L46.375 99.375V91.8656Z" fill="white"/>
</svg>
