<svg width="28" height="27" viewBox="0 0 28 27" fill="none" xmlns="http://www.w3.org/2000/svg">
<path d="M9.56763 1.58873C8.75729 0.48522 7.63529 -0.0120401 6.44529 0.000221124C5.31621 0.01112 4.21688 0.475683 3.29888 1.09419C2.36254 1.72812 1.56415 2.53201 0.948628 3.46061C0.367795 4.34477 -0.0515388 5.3897 0.00512789 6.41011C0.278545 11.3187 3.15013 16.5637 7.18338 20.4451C11.2138 24.3224 16.5957 27.0171 22.03 26.5021C23.0954 26.4013 24.1026 25.8795 24.9257 25.2147C25.777 24.5213 26.4726 23.6683 26.97 22.708C27.4516 21.7652 27.7392 20.6781 27.5805 19.6195C27.4162 18.516 26.7745 17.5297 25.5944 16.8757C25.3499 16.7393 25.1081 16.5985 24.869 16.4534C24.6565 16.3267 24.4299 16.1891 24.155 16.0311C23.5937 15.6982 23.0013 15.4164 22.3856 15.1891C21.7524 14.9671 21.0285 14.8213 20.2748 14.9207C19.4942 15.0243 18.7689 15.3785 18.1413 16.0134C17.6582 16.5038 16.947 16.6564 15.9469 16.3785C14.9297 16.0951 13.785 15.3921 12.7905 14.4412C11.796 13.493 11.0438 12.384 10.7222 11.3827C10.4049 10.3909 10.5451 9.66205 11.041 9.15934C11.711 8.48089 12.068 7.72614 12.1431 6.9278C12.2168 6.15126 12.0156 5.42104 11.728 4.78345C11.2974 3.83117 10.5664 2.88433 9.99405 2.14593C9.85015 1.96132 9.70847 1.77512 9.56905 1.58737" fill="white"/>
</svg>
